# xmcd CD database file
#
# Track frame offsets:
#	150
#	43595
#	79160
#	115592
#	150292
#	184125
#	220560
#	262237
#
# Disc length: 4104 seconds
#
# Revision: 4
# Processed by: cddbd v1.5.2PL0 Copyright (c) Steve Scherf et al.
# Submitted via: CDex 1.70beta2
#
DISCID=60100608,70100608
DTITLE=Big Bud - Late Night Blues [CD2)
DYEAR=2000
DGENRE=Downtempo
TTITLE0=Bluegrass
TTITLE1=Hypnosis
TTITLE2=Listen
TTITLE3=Spacedub
TTITLE4=My Spirit
TTITLE5=State of Mind
TTITLE6=Pure
TTITLE7=Mr Nice
EXTD=YEAR: 2000
EXTT0=
EXTT1=
EXTT2=
EXTT3=
EXTT4=
EXTT5=
EXTT6=
EXTT7=
PLAYORDER=
